<svg xmlns="http://www.w3.org/2000/svg" viewBox="0 0 450 449.99">
<path fill="#fff" d="M84.12,119.67v0a1.4,1.4,0,0,0-1.4-1.4H65.53a1.4,1.4,0,0,0-1.4,1.4v17.2a1.4,1.4,0,0,0,1.4,1.4h9.32v-7.77H72.23v-3h2.62v-2.23a3.65,3.65,0,0,1,3.9-4,21.46,21.46,0,0,1,2.34.12V124h-1.6c-1.26,0-1.5.6-1.5,1.47v1.93h3l-.39,3H78v7.77h4.75a1.4,1.4,0,0,0,1.4-1.4v0h0V119.67Z" transform="translate(-0.12 -0.23)"></path><path fill="#fff" d="M450.12,32.67s0,0,0-.06v-.86A31.6,31.6,0,0,0,418.61.23h-387A31.6,31.6,0,0,0,.12,31.74v387a31.6,31.6,0,0,0,31.51,31.51h387a31.6,31.6,0,0,0,31.51-31.51v-.9s0,0,0-.06Zm-66.55,351h-66.7V279.25c0-24.91-.46-56.95-34.68-56.95-34.73,0-40.05,27.13-40.05,55.14V383.69h-66.7V168.94h64v29.34h.89c8.9-16.88,30.68-34.69,63.15-34.69,67.59,0,80.06,44.48,80.06,102.3Zm-316.73,0V168.94h66.75V383.69Zm33.39-244.11a38.7,38.7,0,1,1,38.68-38.71A38.71,38.71,0,0,1,100.23,139.58Z" transform="translate(-0.12 -0.23)"></path>
</svg>