<svg xmlns="http://www.w3.org/2000/svg" viewBox="0 0 450 449.99">
<path fill="#fff" d="M84.12,119.67v0a1.4,1.4,0,0,0-1.4-1.4H65.53a1.4,1.4,0,0,0-1.4,1.4v17.2a1.4,1.4,0,0,0,1.4,1.4h9.32v-7.77H72.23v-3h2.62v-2.23a3.65,3.65,0,0,1,3.9-4,21.46,21.46,0,0,1,2.34.12V124h-1.6c-1.26,0-1.5.6-1.5,1.47v1.93h3l-.39,3H78v7.77h4.75a1.4,1.4,0,0,0,1.4-1.4v0h0V119.67Z" transform="translate(0 0)"></path><path fill="#fff" d="M450,32.38v-.86A31.6,31.6,0,0,0,418.48,0h-387A31.6,31.6,0,0,0,0,31.51v387A31.6,31.6,0,0,0,31.51,450h387A31.6,31.6,0,0,0,450,418.49v-.9s0,0,0-.06V32.44S450,32.4,450,32.38ZM347.48,176.12c.17,2.48.17,5,.17,7.47,0,76.33-58.11,164.35-164.35,164.35v0A163.53,163.53,0,0,1,94.76,322a117.39,117.39,0,0,0,13.75.83A115.9,115.9,0,0,0,180.25,298a57.83,57.83,0,0,1-54-40.11,57.67,57.67,0,0,0,26.08-1A57.78,57.78,0,0,1,106,200.32v-.73a57.34,57.34,0,0,0,26.22,7.23,57.8,57.8,0,0,1-17.88-77.1,164,164,0,0,0,119,60.35,57.82,57.82,0,0,1,98.43-52.68,115.74,115.74,0,0,0,36.68-14,58,58,0,0,1-25.39,31.95,115.24,115.24,0,0,0,33.18-9.09A117.49,117.49,0,0,1,347.48,176.12Z" transform="translate(0 0)"></path>
</svg>